{"glyphs":{"0":{"ha":1910,"x_min":0,"x_max":1736,"o":"m 174 0 l 174 174 l 0 174 l 0 1215 l 174 1215 l 174 1389 l 1563 1389 l 1563 1215 l 1736 1215 l 1736 174 l 1563 174 l 1563 0 l 174 0 m 1215 1042 l 521 1042 l 521 347 l 1215 347 l 1215 1042 z "},"1":{"ha":1042,"x_min":0,"x_max":868,"o":"m 0 694 l 0 1042 l 174 1042 l 174 1215 l 347 1215 l 347 1389 l 868 1389 l 868 0 l 347 0 l 347 694 l 0 694 z "},"2":{"ha":1910,"x_min":0,"x_max":1736,"o":"m 0 0 l 0 694 l 174 694 l 174 868 l 1215 868 l 1215 1042 l 0 1042 l 0 1389 l 1563 1389 l 1563 1215 l 1736 1215 l 1736 694 l 1563 694 l 1563 521 l 521 521 l 521 347 l 1736 347 l 1736 0 l 0 0 z "},"3":{"ha":1910,"x_min":0,"x_max":1736,"o":"m 174 0 l 174 174 l 0 174 l 0 521 l 521 521 l 521 347 l 1215 347 l 1215 521 l 694 521 l 694 868 l 1215 868 l 1215 1042 l 521 1042 l 521 868 l 0 868 l 0 1215 l 174 1215 l 174 1389 l 1563 1389 l 1563 1215 l 1736 1215 l 1736 868 l 1563 868 l 1563 694 l 1736 694 l 1736 174 l 1563 174 l 1563 0 l 174 0 z "},"4":{"ha":1910,"x_min":0,"x_max":1736,"o":"m 0 174 l 0 694 l 174 694 l 174 868 l 347 868 l 347 1042 l 521 1042 l 521 1215 l 694 1215 l 694 1389 l 1563 1389 l 1563 521 l 1736 521 l 1736 174 l 1563 174 l 1563 0 l 1042 0 l 1042 174 l 0 174 m 1042 521 l 1042 868 l 868 868 l 868 694 l 694 694 l 694 521 l 1042 521 z "},"5":{"ha":1910,"x_min":0,"x_max":1736,"o":"m 0 1389 l 1736 1389 l 1736 1042 l 521 1042 l 521 868 l 1563 868 l 1563 694 l 1736 694 l 1736 174 l 1563 174 l 1563 0 l 0 0 l 0 347 l 1215 347 l 1215 521 l 0 521 l 0 1389 z "},"6":{"ha":1910,"x_min":0,"x_max":1736,"o":"m 174 0 l 174 174 l 0 174 l 0 1215 l 174 1215 l 174 1389 l 1736 1389 l 1736 1042 l 521 1042 l 521 868 l 1563 868 l 1563 694 l 1736 694 l 1736 174 l 1563 174 l 1563 0 l 174 0 m 521 347 l 1215 347 l 1215 521 l 521 521 l 521 347 z "},"7":{"ha":1910,"x_min":0,"x_max":1736,"o":"m 0 1042 l 0 1389 l 1736 1389 l 1736 868 l 1563 868 l 1563 694 l 1389 694 l 1389 521 l 1215 521 l 1215 347 l 1042 347 l 1042 174 l 868 174 l 868 0 l 347 0 l 347 347 l 521 347 l 521 521 l 694 521 l 694 694 l 868 694 l 868 868 l 1042 868 l 1042 1042 l 0 1042 z "},"8":{"ha":1910,"x_min":0,"x_max":1736,"o":"m 174 0 l 174 174 l 0 174 l 0 694 l 174 694 l 174 868 l 0 868 l 0 1215 l 174 1215 l 174 1389 l 1563 1389 l 1563 1215 l 1736 1215 l 1736 868 l 1563 868 l 1563 694 l 1736 694 l 1736 174 l 1563 174 l 1563 0 l 174 0 m 521 347 l 1215 347 l 1215 521 l 521 521 l 521 347 m 1215 868 l 1215 1042 l 521 1042 l 521 868 l 1215 868 z "},"9":{"ha":1910,"x_min":0,"x_max":1736,"o":"m 1563 1389 l 1563 1215 l 1736 1215 l 1736 174 l 1563 174 l 1563 0 l 0 0 l 0 347 l 1215 347 l 1215 521 l 174 521 l 174 694 l 0 694 l 0 1215 l 174 1215 l 174 1389 l 1563 1389 m 1215 1042 l 521 1042 l 521 868 l 1215 868 l 1215 1042 z "}," ":{"ha":1042,"x_min":0,"x_max":0,"o":""},"!":{"ha":694,"x_min":0,"x_max":521,"o":"m 0 521 l 0 1389 l 521 1389 l 521 521 l 0 521 m 0 0 l 0 347 l 521 347 l 521 0 l 0 0 z "},"\"":{"ha":1042,"x_min":0,"x_max":868,"o":"m 0 868 l 0 1389 l 347 1389 l 347 868 l 0 868 m 521 868 l 521 1389 l 868 1389 l 868 868 l 521 868 z "},"#":{"ha":1563,"x_min":0,"x_max":1389,"o":"m 174 0 l 174 174 l 0 174 l 0 521 l 174 521 l 174 868 l 0 868 l 0 1215 l 174 1215 l 174 1389 l 521 1389 l 521 1215 l 868 1215 l 868 1389 l 1215 1389 l 1215 1215 l 1389 1215 l 1389 868 l 1215 868 l 1215 521 l 1389 521 l 1389 174 l 1215 174 l 1215 0 l 868 0 l 868 174 l 521 174 l 521 0 l 174 0 m 521 868 l 521 521 l 868 521 l 868 868 l 521 868 z "},"$":{"ha":1563,"x_min":0,"x_max":1389,"o":"m 0 0 l 0 347 l 521 347 l 521 521 l 174 521 l 174 694 l 0 694 l 0 1215 l 174 1215 l 174 1389 l 1389 1389 l 1389 1042 l 868 1042 l 868 868 l 1215 868 l 1215 694 l 1389 694 l 1389 174 l 1215 174 l 1215 0 l 0 0 m 1042 347 l 1042 521 l 868 521 l 868 347 l 1042 347 m 347 1042 l 347 868 l 521 868 l 521 1042 l 347 1042 z "},"%":{"ha":1910,"x_min":0,"x_max":1736,"o":"m 174 0 l 174 347 l 347 347 l 347 521 l 174 521 l 174 694 l 0 694 l 0 1215 l 174 1215 l 174 1389 l 694 1389 l 694 1215 l 868 1215 l 868 1042 l 1042 1042 l 1042 1215 l 1215 1215 l 1215 1389 l 1563 1389 l 1563 1042 l 1389 1042 l 1389 868 l 1563 868 l 1563 694 l 1736 694 l 1736 174 l 1563 174 l 1563 0 l 1042 0 l 1042 174 l 868 174 l 868 347 l 694 347 l 694 174 l 521 174 l 521 0 l 174 0 m 347 1042 l 347 868 l 521 868 l 521 1042 l 347 1042 m 1215 347 l 1389 347 l 1389 521 l 1215 521 l 1215 347 z "},"&":{"ha":2083,"x_min":0,"x_max":1910,"o":"m 174 0 l 174 174 l 0 174 l 0 694 l 174 694 l 174 1215 l 347 1215 l 347 1389 l 1389 1389 l 1389 1215 l 1563 1215 l 1563 868 l 1042 868 l 1042 1042 l 694 1042 l 694 868 l 1042 868 l 1042 694 l 1736 694 l 1736 347 l 1910 347 l 1910 0 l 1389 0 l 1389 174 l 1215 174 l 1215 0 l 174 0 m 521 347 l 694 347 l 694 521 l 521 521 l 521 347 z "},"'":{"ha":521,"x_min":0,"x_max":347,"o":"m 0 868 l 0 1389 l 347 1389 l 347 868 l 0 868 z "},"(":{"ha":868,"x_min":0,"x_max":694,"o":"m 174 0 l 174 174 l 0 174 l 0 1215 l 174 1215 l 174 1389 l 694 1389 l 694 1042 l 347 1042 l 347 347 l 694 347 l 694 0 l 174 0 z "},")":{"ha":868,"x_min":0,"x_max":694,"o":"m 521 0 l 0 0 l 0 347 l 347 347 l 347 1042 l 0 1042 l 0 1389 l 521 1389 l 521 1215 l 694 1215 l 694 174 l 521 174 l 521 0 z "},"*":{"ha":1563,"x_min":0,"x_max":1389,"o":"m 0 174 l 0 521 l 174 521 l 174 868 l 0 868 l 0 1215 l 347 1215 l 347 1042 l 521 1042 l 521 1389 l 868 1389 l 868 1042 l 1042 1042 l 1042 1215 l 1389 1215 l 1389 868 l 1215 868 l 1215 521 l 1389 521 l 1389 174 l 1042 174 l 1042 347 l 868 347 l 868 0 l 521 0 l 521 347 l 347 347 l 347 174 l 0 174 z "},"+":{"ha":1563,"x_min":0,"x_max":1389,"o":"m 521 0 l 521 521 l 0 521 l 0 868 l 521 868 l 521 1389 l 868 1389 l 868 868 l 1389 868 l 1389 521 l 868 521 l 868 0 l 521 0 z "},",":{"ha":521,"x_min":0,"x_max":347,"o":"m 0 0 l 0 347 l 347 347 l 347 -174 l 174 -174 l 174 0 l 0 0 z "},"-":{"ha":1563,"x_min":0,"x_max":1389,"o":"m 0 521 l 0 868 l 1389 868 l 1389 521 l 0 521 z "},".":{"ha":521,"x_min":0,"x_max":347,"o":"m 0 0 l 0 347 l 347 347 l 347 0 l 0 0 z "},"/":{"ha":1042,"x_min":0,"x_max":868,"o":"m 0 0 l 0 347 l 174 347 l 174 694 l 347 694 l 347 1042 l 521 1042 l 521 1389 l 868 1389 l 868 1042 l 694 1042 l 694 694 l 521 694 l 521 347 l 347 347 l 347 0 l 0 0 z "},":":{"ha":521,"x_min":0,"x_max":347,"o":"m 0 868 l 0 1215 l 347 1215 l 347 868 l 0 868 m 0 174 l 0 521 l 347 521 l 347 174 l 0 174 z "},";":{"ha":521,"x_min":0,"x_max":347,"o":"m 0 868 l 0 1215 l 347 1215 l 347 868 l 0 868 m 0 174 l 0 521 l 347 521 l 347 0 l 174 0 l 174 174 l 0 174 z "},"<":{"ha":1042,"x_min":0,"x_max":868,"o":"m 521 0 l 521 174 l 347 174 l 347 347 l 174 347 l 174 521 l 0 521 l 0 868 l 174 868 l 174 1042 l 347 1042 l 347 1215 l 521 1215 l 521 1389 l 868 1389 l 868 1042 l 694 1042 l 694 868 l 521 868 l 521 521 l 694 521 l 694 347 l 868 347 l 868 0 l 521 0 z "},"=":{"ha":1563,"x_min":0,"x_max":1389,"o":"m 0 174 l 0 521 l 1389 521 l 1389 174 l 0 174 m 0 868 l 0 1215 l 1389 1215 l 1389 868 l 0 868 z "},">":{"ha":1042,"x_min":0,"x_max":868,"o":"m 347 0 l 0 0 l 0 347 l 174 347 l 174 521 l 347 521 l 347 868 l 174 868 l 174 1042 l 0 1042 l 0 1389 l 347 1389 l 347 1215 l 521 1215 l 521 1042 l 694 1042 l 694 868 l 868 868 l 868 521 l 694 521 l 694 347 l 521 347 l 521 174 l 347 174 l 347 0 z "},"?":{"ha":1910,"x_min":0,"x_max":1736,"o":"m 0 868 l 0 1215 l 174 1215 l 174 1389 l 1563 1389 l 1563 1215 l 1736 1215 l 1736 694 l 1563 694 l 1563 521 l 694 521 l 694 868 l 1215 868 l 1215 1042 l 521 1042 l 521 868 l 0 868 m 694 0 l 694 347 l 1215 347 l 1215 0 l 694 0 z "},"@":{"ha":1736,"x_min":0,"x_max":1563,"o":"m 347 -174 l 347 0 l 174 0 l 174 174 l 0 174 l 0 1042 l 174 1042 l 174 1215 l 347 1215 l 347 1389 l 1215 1389 l 1215 1215 l 1389 1215 l 1389 1042 l 1563 1042 l 1563 174 l 1215 174 l 1215 521 l 868 521 l 868 174 l 1215 174 l 1215 -174 l 347 -174 m 347 347 l 521 347 l 521 694 l 694 694 l 694 868 l 1042 868 l 1042 1042 l 521 1042 l 521 868 l 347 868 l 347 347 z "},"A":{"ha":2083,"x_min":0,"x_max":1910,"o":"m 0 0 l 0 347 l 174 347 l 174 694 l 347 694 l 347 1042 l 521 1042 l 521 1389 l 1389 1389 l 1389 1042 l 1563 1042 l 1563 694 l 1736 694 l 1736 347 l 1910 347 l 1910 0 l 1389 0 l 1389 174 l 521 174 l 521 0 l 0 0 m 868 1042 l 868 694 l 694 694 l 694 521 l 1215 521 l 1215 694 l 1042 694 l 1042 1042 l 868 1042 z "},"B":{"ha":2083,"x_min":0,"x_max":1910,"o":"m 0 0 l 0 1389 l 1736 1389 l 1736 1215 l 1910 1215 l 1910 868 l 1736 868 l 1736 694 l 1910 694 l 1910 174 l 1736 174 l 1736 0 l 0 0 m 521 1042 l 521 868 l 1389 868 l 1389 1042 l 521 1042 m 521 521 l 521 347 l 1389 347 l 1389 521 l 521 521 z "},"C":{"ha":2083,"x_min":0,"x_max":1910,"o":"m 174 0 l 174 174 l 0 174 l 0 1215 l 174 1215 l 174 1389 l 1736 1389 l 1736 1215 l 1910 1215 l 1910 868 l 1389 868 l 1389 1042 l 521 1042 l 521 347 l 1389 347 l 1389 521 l 1910 521 l 1910 174 l 1736 174 l 1736 0 l 174 0 z "},"D":{"ha":2083,"x_min":0,"x_max":1910,"o":"m 0 0 l 0 1389 l 1736 1389 l 1736 1215 l 1910 1215 l 1910 174 l 1736 174 l 1736 0 l 0 0 m 1389 1042 l 521 1042 l 521 347 l 1389 347 l 1389 1042 z "},"E":{"ha":2083,"x_min":0,"x_max":1910,"o":"m 0 0 l 0 1389 l 1910 1389 l 1910 1042 l 521 1042 l 521 868 l 1736 868 l 1736 521 l 521 521 l 521 347 l 1910 347 l 1910 0 l 0 0 z "},"F":{"ha":2083,"x_min":0,"x_max":1910,"o":"m 0 0 l 0 1389 l 1910 1389 l 1910 1042 l 521 1042 l 521 868 l 1736 868 l 1736 521 l 521 521 l 521 0 l 0 0 z "},"G":{"ha":2083,"x_min":0,"x_max":1910,"o":"m 174 0 l 174 174 l 0 174 l 0 1215 l 174 1215 l 174 1389 l 1910 1389 l 1910 1042 l 521 1042 l 521 347 l 1389 347 l 1389 521 l 868 521 l 868 868 l 1910 868 l 1910 174 l 1736 174 l 1736 0 l 174 0 z "},"H":{"ha":2083,"x_min":0,"x_max":1910,"o":"m 0 0 l 0 1389 l 521 1389 l 521 868 l 1389 868 l 1389 1389 l 1910 1389 l 1910 0 l 1389 0 l 1389 521 l 521 521 l 521 0 l 0 0 z "},"I":{"ha":694,"x_min":0,"x_max":521,"o":"m 0 0 l 0 1389 l 521 1389 l 521 0 l 0 0 z "},"J":{"ha":2083,"x_min":0,"x_max":1910,"o":"m 1736 0 l 174 0 l 174 174 l 0 174 l 0 694 l 521 694 l 521 347 l 1389 347 l 1389 1389 l 1910 1389 l 1910 174 l 1736 174 l 1736 0 z "},"K":{"ha":2083,"x_min":0,"x_max":1910,"o":"m 0 0 l 0 1389 l 521 1389 l 521 868 l 694 868 l 694 1042 l 1042 1042 l 1042 1215 l 1389 1215 l 1389 1389 l 1910 1389 l 1910 1042 l 1563 1042 l 1563 868 l 1215 868 l 1215 521 l 1563 521 l 1563 347 l 1910 347 l 1910 0 l 1389 0 l 1389 174 l 1042 174 l 1042 347 l 694 347 l 694 521 l 521 521 l 521 0 l 0 0 z "},"L":{"ha":2083,"x_min":0,"x_max":1910,"o":"m 0 0 l 0 1389 l 521 1389 l 521 347 l 1910 347 l 1910 0 l 0 0 z "},"M":{"ha":2431,"x_min":0,"x_max":2257,"o":"m 0 0 l 521 0 l 521 694 l 694 694 l 694 347 l 868 347 l 868 0 l 1389 0 l 1389 347 l 1563 347 l 1563 694 l 1736 694 l 1736 0 l 2257 0 l 2257 1389 l 1389 1389 l 1389 1042 l 1215 1042 l 1215 694 l 1042 694 l 1042 1042 l 868 1042 l 868 1389 l 0 1389 l 0 0 z "},"N":{"ha":2083,"x_min":0,"x_max":1910,"o":"m 0 0 l 0 1389 l 694 1389 l 694 1215 l 868 1215 l 868 1042 l 1042 1042 l 1042 868 l 1215 868 l 1215 694 l 1389 694 l 1389 1389 l 1910 1389 l 1910 0 l 1215 0 l 1215 174 l 1042 174 l 1042 347 l 868 347 l 868 521 l 694 521 l 694 694 l 521 694 l 521 0 l 0 0 z "},"O":{"ha":2083,"x_min":0,"x_max":1910,"o":"m 174 0 l 174 174 l 0 174 l 0 1215 l 174 1215 l 174 1389 l 1736 1389 l 1736 1215 l 1910 1215 l 1910 174 l 1736 174 l 1736 0 l 174 0 m 1389 1042 l 521 1042 l 521 347 l 1389 347 l 1389 1042 z "},"P":{"ha":2083,"x_min":0,"x_max":1910,"o":"m 0 0 l 521 0 l 521 347 l 1736 347 l 1736 521 l 1910 521 l 1910 1215 l 1736 1215 l 1736 1389 l 0 1389 l 0 0 m 521 694 l 521 1042 l 1389 1042 l 1389 694 l 521 694 z "},"Q":{"ha":2257,"x_min":0,"x_max":2083,"o":"m 174 0 l 174 174 l 0 174 l 0 1215 l 174 1215 l 174 1389 l 1736 1389 l 1736 1215 l 1910 1215 l 1910 347 l 2083 347 l 2083 0 l 174 0 m 1389 1042 l 521 1042 l 521 347 l 1042 347 l 1042 694 l 1389 694 l 1389 1042 z "},"R":{"ha":2083,"x_min":0,"x_max":1910,"o":"m 0 0 l 0 1389 l 1736 1389 l 1736 1215 l 1910 1215 l 1910 521 l 1736 521 l 1736 347 l 1910 347 l 1910 0 l 1389 0 l 1389 347 l 521 347 l 521 0 l 0 0 m 521 694 l 1389 694 l 1389 1042 l 521 1042 l 521 694 z "},"S":{"ha":2083,"x_min":0,"x_max":1910,"o":"m 0 0 l 0 347 l 1389 347 l 1389 521 l 174 521 l 174 694 l 0 694 l 0 1215 l 174 1215 l 174 1389 l 1910 1389 l 1910 1042 l 521 1042 l 521 868 l 1736 868 l 1736 694 l 1910 694 l 1910 174 l 1736 174 l 1736 0 l 0 0 z "},"T":{"ha":2083,"x_min":0,"x_max":1910,"o":"m 0 1042 l 0 1389 l 1910 1389 l 1910 1042 l 1215 1042 l 1215 0 l 694 0 l 694 1042 l 0 1042 z "},"U":{"ha":2083,"x_min":0,"x_max":1910,"o":"m 174 0 l 174 174 l 0 174 l 0 1389 l 521 1389 l 521 347 l 1389 347 l 1389 1389 l 1910 1389 l 1910 174 l 1736 174 l 1736 0 l 174 0 z "},"V":{"ha":2083,"x_min":0,"x_max":1910,"o":"m 0 1042 l 0 1389 l 521 1389 l 521 1042 l 694 1042 l 694 694 l 868 694 l 868 347 l 1042 347 l 1042 694 l 1215 694 l 1215 1042 l 1389 1042 l 1389 1389 l 1910 1389 l 1910 1042 l 1736 1042 l 1736 694 l 1563 694 l 1563 347 l 1389 347 l 1389 0 l 521 0 l 521 347 l 347 347 l 347 694 l 174 694 l 174 1042 l 0 1042 z "},"W":{"ha":2778,"x_min":0,"x_max":2604,"o":"m 0 1042 l 0 1389 l 521 1389 l 521 1042 l 694 1042 l 694 694 l 868 694 l 868 1042 l 1042 1042 l 1042 1389 l 1563 1389 l 1563 1042 l 1736 1042 l 1736 694 l 1910 694 l 1910 1042 l 2083 1042 l 2083 1389 l 2604 1389 l 2604 1042 l 2431 1042 l 2431 694 l 2257 694 l 2257 347 l 2083 347 l 2083 0 l 1563 0 l 1563 347 l 1389 347 l 1389 694 l 1215 694 l 1215 347 l 1042 347 l 1042 0 l 521 0 l 521 347 l 347 347 l 347 694 l 174 694 l 174 1042 l 0 1042 z "},"X":{"ha":2083,"x_min":0,"x_max":1910,"o":"m 0 0 l 0 347 l 174 347 l 174 521 l 347 521 l 347 868 l 174 868 l 174 1042 l 0 1042 l 0 1389 l 521 1389 l 521 1215 l 694 1215 l 694 1042 l 868 1042 l 868 868 l 1042 868 l 1042 1042 l 1215 1042 l 1215 1215 l 1389 1215 l 1389 1389 l 1910 1389 l 1910 1042 l 1736 1042 l 1736 868 l 1563 868 l 1563 521 l 1736 521 l 1736 347 l 1910 347 l 1910 0 l 1389 0 l 1389 174 l 1215 174 l 1215 347 l 1042 347 l 1042 521 l 868 521 l 868 347 l 694 347 l 694 174 l 521 174 l 521 0 l 0 0 z "},"Y":{"ha":2083,"x_min":0,"x_max":1910,"o":"m 0 1042 l 0 1389 l 521 1389 l 521 1215 l 694 1215 l 694 1042 l 868 1042 l 868 868 l 1042 868 l 1042 1042 l 1215 1042 l 1215 1215 l 1389 1215 l 1389 1389 l 1910 1389 l 1910 1042 l 1736 1042 l 1736 868 l 1563 868 l 1563 694 l 1389 694 l 1389 521 l 1215 521 l 1215 0 l 694 0 l 694 521 l 521 521 l 521 694 l 347 694 l 347 868 l 174 868 l 174 1042 l 0 1042 z "},"Z":{"ha":2083,"x_min":0,"x_max":1910,"o":"m 0 0 l 0 521 l 347 521 l 347 694 l 694 694 l 694 868 l 1042 868 l 1042 1042 l 0 1042 l 0 1389 l 1910 1389 l 1910 868 l 1563 868 l 1563 694 l 1215 694 l 1215 521 l 868 521 l 868 347 l 1910 347 l 1910 0 l 0 0 z "},"[":{"ha":868,"x_min":0,"x_max":694,"o":"m 0 0 l 0 1389 l 694 1389 l 694 1042 l 347 1042 l 347 347 l 694 347 l 694 0 l 0 0 z "},"\\":{"ha":1042,"x_min":0,"x_max":868,"o":"m 868 0 l 521 0 l 521 347 l 347 347 l 347 694 l 174 694 l 174 1042 l 0 1042 l 0 1389 l 347 1389 l 347 1042 l 521 1042 l 521 694 l 694 694 l 694 347 l 868 347 l 868 0 z "},"]":{"ha":868,"x_min":0,"x_max":694,"o":"m 694 0 l 0 0 l 0 347 l 347 347 l 347 1042 l 0 1042 l 0 1389 l 694 1389 l 694 0 z "},"^":{"ha":1215,"x_min":0,"x_max":1042,"o":"m 0 694 l 0 1042 l 174 1042 l 174 1215 l 347 1215 l 347 1389 l 694 1389 l 694 1215 l 868 1215 l 868 1042 l 1042 1042 l 1042 694 l 694 694 l 694 868 l 347 868 l 347 694 l 0 694 z "},"_":{"ha":1215,"x_min":0,"x_max":1042,"o":"m 0 -174 l 0 174 l 1042 174 l 1042 -174 l 0 -174 z "},"`":{"ha":694,"x_min":0,"x_max":521,"o":"m 0 1042 l 0 1389 l 347 1389 l 347 1215 l 521 1215 l 521 868 l 174 868 l 174 1042 l 0 1042 z "},"a":{"ha":2083,"x_min":0,"x_max":1910,"o":"m 0 0 l 0 347 l 174 347 l 174 694 l 347 694 l 347 1042 l 521 1042 l 521 1389 l 1389 1389 l 1389 1042 l 1563 1042 l 1563 694 l 1736 694 l 1736 347 l 1910 347 l 1910 0 l 1389 0 l 1389 174 l 521 174 l 521 0 l 0 0 m 868 1042 l 868 694 l 694 694 l 694 521 l 1215 521 l 1215 694 l 1042 694 l 1042 1042 l 868 1042 z "},"b":{"ha":2083,"x_min":0,"x_max":1910,"o":"m 0 0 l 0 1389 l 1736 1389 l 1736 1215 l 1910 1215 l 1910 868 l 1736 868 l 1736 694 l 1910 694 l 1910 174 l 1736 174 l 1736 0 l 0 0 m 521 1042 l 521 868 l 1389 868 l 1389 1042 l 521 1042 m 521 521 l 521 347 l 1389 347 l 1389 521 l 521 521 z "},"c":{"ha":2083,"x_min":0,"x_max":1910,"o":"m 174 0 l 174 174 l 0 174 l 0 1215 l 174 1215 l 174 1389 l 1736 1389 l 1736 1215 l 1910 1215 l 1910 868 l 1389 868 l 1389 1042 l 521 1042 l 521 347 l 1389 347 l 1389 521 l 1910 521 l 1910 174 l 1736 174 l 1736 0 l 174 0 z "},"d":{"ha":2083,"x_min":0,"x_max":1910,"o":"m 0 0 l 0 1389 l 1736 1389 l 1736 1215 l 1910 1215 l 1910 174 l 1736 174 l 1736 0 l 0 0 m 1389 1042 l 521 1042 l 521 347 l 1389 347 l 1389 1042 z "},"e":{"ha":2083,"x_min":0,"x_max":1910,"o":"m 0 0 l 0 1389 l 1910 1389 l 1910 1042 l 521 1042 l 521 868 l 1736 868 l 1736 521 l 521 521 l 521 347 l 1910 347 l 1910 0 l 0 0 z "},"f":{"ha":2083,"x_min":0,"x_max":1910,"o":"m 0 0 l 0 1389 l 1910 1389 l 1910 1042 l 521 1042 l 521 868 l 1736 868 l 1736 521 l 521 521 l 521 0 l 0 0 z "},"g":{"ha":2083,"x_min":0,"x_max":1910,"o":"m 174 0 l 174 174 l 0 174 l 0 1215 l 174 1215 l 174 1389 l 1910 1389 l 1910 1042 l 521 1042 l 521 347 l 1389 347 l 1389 521 l 868 521 l 868 868 l 1910 868 l 1910 174 l 1736 174 l 1736 0 l 174 0 z "},"h":{"ha":2083,"x_min":0,"x_max":1910,"o":"m 0 0 l 0 1389 l 521 1389 l 521 868 l 1389 868 l 1389 1389 l 1910 1389 l 1910 0 l 1389 0 l 1389 521 l 521 521 l 521 0 l 0 0 z "},"i":{"ha":694,"x_min":0,"x_max":521,"o":"m 0 0 l 0 1389 l 521 1389 l 521 0 l 0 0 z "},"j":{"ha":2083,"x_min":0,"x_max":1910,"o":"m 1736 0 l 174 0 l 174 174 l 0 174 l 0 694 l 521 694 l 521 347 l 1389 347 l 1389 1389 l 1910 1389 l 1910 174 l 1736 174 l 1736 0 z "},"k":{"ha":2083,"x_min":0,"x_max":1910,"o":"m 0 0 l 0 1389 l 521 1389 l 521 868 l 694 868 l 694 1042 l 1042 1042 l 1042 1215 l 1389 1215 l 1389 1389 l 1910 1389 l 1910 1042 l 1563 1042 l 1563 868 l 1215 868 l 1215 521 l 1563 521 l 1563 347 l 1910 347 l 1910 0 l 1389 0 l 1389 174 l 1042 174 l 1042 347 l 694 347 l 694 521 l 521 521 l 521 0 l 0 0 z "},"l":{"ha":2083,"x_min":0,"x_max":1910,"o":"m 0 0 l 0 1389 l 521 1389 l 521 347 l 1910 347 l 1910 0 l 0 0 z "},"m":{"ha":2431,"x_min":0,"x_max":2257,"o":"m 0 0 l 521 0 l 521 694 l 694 694 l 694 347 l 868 347 l 868 0 l 1389 0 l 1389 347 l 1563 347 l 1563 694 l 1736 694 l 1736 0 l 2257 0 l 2257 1389 l 1389 1389 l 1389 1042 l 1215 1042 l 1215 694 l 1042 694 l 1042 1042 l 868 1042 l 868 1389 l 0 1389 l 0 0 z "},"n":{"ha":2083,"x_min":0,"x_max":1910,"o":"m 0 0 l 0 1389 l 694 1389 l 694 1215 l 868 1215 l 868 1042 l 1042 1042 l 1042 868 l 1215 868 l 1215 694 l 1389 694 l 1389 1389 l 1910 1389 l 1910 0 l 1215 0 l 1215 174 l 1042 174 l 1042 347 l 868 347 l 868 521 l 694 521 l 694 694 l 521 694 l 521 0 l 0 0 z "},"o":{"ha":2083,"x_min":0,"x_max":1910,"o":"m 174 0 l 174 174 l 0 174 l 0 1215 l 174 1215 l 174 1389 l 1736 1389 l 1736 1215 l 1910 1215 l 1910 174 l 1736 174 l 1736 0 l 174 0 m 1389 1042 l 521 1042 l 521 347 l 1389 347 l 1389 1042 z "},"p":{"ha":2083,"x_min":0,"x_max":1910,"o":"m 0 0 l 521 0 l 521 347 l 1736 347 l 1736 521 l 1910 521 l 1910 1215 l 1736 1215 l 1736 1389 l 0 1389 l 0 0 m 521 694 l 521 1042 l 1389 1042 l 1389 694 l 521 694 z "},"q":{"ha":2257,"x_min":0,"x_max":2083,"o":"m 174 0 l 174 174 l 0 174 l 0 1215 l 174 1215 l 174 1389 l 1736 1389 l 1736 1215 l 1910 1215 l 1910 347 l 2083 347 l 2083 0 l 174 0 m 1389 1042 l 521 1042 l 521 347 l 1042 347 l 1042 694 l 1389 694 l 1389 1042 z "},"r":{"ha":2083,"x_min":0,"x_max":1910,"o":"m 0 0 l 0 1389 l 1736 1389 l 1736 1215 l 1910 1215 l 1910 521 l 1736 521 l 1736 347 l 1910 347 l 1910 0 l 1389 0 l 1389 347 l 521 347 l 521 0 l 0 0 m 521 694 l 1389 694 l 1389 1042 l 521 1042 l 521 694 z "},"s":{"ha":2083,"x_min":0,"x_max":1910,"o":"m 0 0 l 0 347 l 1389 347 l 1389 521 l 174 521 l 174 694 l 0 694 l 0 1215 l 174 1215 l 174 1389 l 1910 1389 l 1910 1042 l 521 1042 l 521 868 l 1736 868 l 1736 694 l 1910 694 l 1910 174 l 1736 174 l 1736 0 l 0 0 z "},"t":{"ha":2083,"x_min":0,"x_max":1910,"o":"m 0 1042 l 0 1389 l 1910 1389 l 1910 1042 l 1215 1042 l 1215 0 l 694 0 l 694 1042 l 0 1042 z "},"u":{"ha":2083,"x_min":0,"x_max":1910,"o":"m 174 0 l 174 174 l 0 174 l 0 1389 l 521 1389 l 521 347 l 1389 347 l 1389 1389 l 1910 1389 l 1910 174 l 1736 174 l 1736 0 l 174 0 z "},"v":{"ha":2083,"x_min":0,"x_max":1910,"o":"m 0 1042 l 0 1389 l 521 1389 l 521 1042 l 694 1042 l 694 694 l 868 694 l 868 347 l 1042 347 l 1042 694 l 1215 694 l 1215 1042 l 1389 1042 l 1389 1389 l 1910 1389 l 1910 1042 l 1736 1042 l 1736 694 l 1563 694 l 1563 347 l 1389 347 l 1389 0 l 521 0 l 521 347 l 347 347 l 347 694 l 174 694 l 174 1042 l 0 1042 z "},"w":{"ha":2778,"x_min":0,"x_max":2604,"o":"m 0 1042 l 0 1389 l 521 1389 l 521 1042 l 694 1042 l 694 694 l 868 694 l 868 1042 l 1042 1042 l 1042 1389 l 1563 1389 l 1563 1042 l 1736 1042 l 1736 694 l 1910 694 l 1910 1042 l 2083 1042 l 2083 1389 l 2604 1389 l 2604 1042 l 2431 1042 l 2431 694 l 2257 694 l 2257 347 l 2083 347 l 2083 0 l 1563 0 l 1563 347 l 1389 347 l 1389 694 l 1215 694 l 1215 347 l 1042 347 l 1042 0 l 521 0 l 521 347 l 347 347 l 347 694 l 174 694 l 174 1042 l 0 1042 z "},"x":{"ha":2083,"x_min":0,"x_max":1910,"o":"m 0 0 l 0 347 l 174 347 l 174 521 l 347 521 l 347 868 l 174 868 l 174 1042 l 0 1042 l 0 1389 l 521 1389 l 521 1215 l 694 1215 l 694 1042 l 868 1042 l 868 868 l 1042 868 l 1042 1042 l 1215 1042 l 1215 1215 l 1389 1215 l 1389 1389 l 1910 1389 l 1910 1042 l 1736 1042 l 1736 868 l 1563 868 l 1563 521 l 1736 521 l 1736 347 l 1910 347 l 1910 0 l 1389 0 l 1389 174 l 1215 174 l 1215 347 l 1042 347 l 1042 521 l 868 521 l 868 347 l 694 347 l 694 174 l 521 174 l 521 0 l 0 0 z "},"y":{"ha":2083,"x_min":0,"x_max":1910,"o":"m 0 1042 l 0 1389 l 521 1389 l 521 1215 l 694 1215 l 694 1042 l 868 1042 l 868 868 l 1042 868 l 1042 1042 l 1215 1042 l 1215 1215 l 1389 1215 l 1389 1389 l 1910 1389 l 1910 1042 l 1736 1042 l 1736 868 l 1563 868 l 1563 694 l 1389 694 l 1389 521 l 1215 521 l 1215 0 l 694 0 l 694 521 l 521 521 l 521 694 l 347 694 l 347 868 l 174 868 l 174 1042 l 0 1042 z "},"z":{"ha":2083,"x_min":0,"x_max":1910,"o":"m 0 0 l 0 521 l 347 521 l 347 694 l 694 694 l 694 868 l 1042 868 l 1042 1042 l 0 1042 l 0 1389 l 1910 1389 l 1910 868 l 1563 868 l 1563 694 l 1215 694 l 1215 521 l 868 521 l 868 347 l 1910 347 l 1910 0 l 0 0 z "},"{":{"ha":868,"x_min":0,"x_max":694,"o":"m 347 -174 l 347 0 l 174 0 l 174 521 l 0 521 l 0 694 l 174 694 l 174 1215 l 347 1215 l 347 1389 l 694 1389 l 694 1042 l 521 1042 l 521 694 l 347 694 l 347 521 l 521 521 l 521 174 l 694 174 l 694 -174 l 347 -174 z "},"|":{"ha":521,"x_min":0,"x_max":347,"o":"m 0 0 l 0 1389 l 347 1389 l 347 0 l 0 0 z "},"}":{"ha":868,"x_min":0,"x_max":694,"o":"m 347 -174 l 0 -174 l 0 174 l 174 174 l 174 521 l 347 521 l 347 694 l 174 694 l 174 1042 l 0 1042 l 0 1389 l 347 1389 l 347 1215 l 521 1215 l 521 694 l 694 694 l 694 521 l 521 521 l 521 0 l 347 0 l 347 -174 z "},"~":{"ha":1389,"x_min":0,"x_max":1215,"o":"m 174 1042 l 174 868 l 0 868 l 0 521 l 347 521 l 347 694 l 521 694 l 521 521 l 1042 521 l 1042 694 l 1215 694 l 1215 1042 l 868 1042 l 868 868 l 694 868 l 694 1042 l 174 1042 z "}," ":{"ha":694,"x_min":0,"x_max":0,"o":""},"¡":{"ha":694,"x_min":0,"x_max":0,"o":""},"¢":{"ha":694,"x_min":0,"x_max":0,"o":""},"£":{"ha":694,"x_min":0,"x_max":0,"o":""},"¤":{"ha":694,"x_min":0,"x_max":0,"o":""},"¥":{"ha":694,"x_min":0,"x_max":0,"o":""},"¦":{"ha":694,"x_min":0,"x_max":0,"o":""},"§":{"ha":694,"x_min":0,"x_max":0,"o":""},"¨":{"ha":694,"x_min":0,"x_max":0,"o":""},"©":{"ha":694,"x_min":0,"x_max":0,"o":""},"ª":{"ha":694,"x_min":0,"x_max":0,"o":""},"«":{"ha":694,"x_min":0,"x_max":0,"o":""},"¬":{"ha":694,"x_min":0,"x_max":0,"o":""},"­":{"ha":694,"x_min":0,"x_max":0,"o":""},"®":{"ha":694,"x_min":0,"x_max":0,"o":""},"¯":{"ha":694,"x_min":0,"x_max":0,"o":""},"°":{"ha":694,"x_min":0,"x_max":0,"o":""},"±":{"ha":694,"x_min":0,"x_max":0,"o":""},"²":{"ha":694,"x_min":0,"x_max":0,"o":""},"³":{"ha":694,"x_min":0,"x_max":0,"o":""},"´":{"ha":694,"x_min":0,"x_max":0,"o":""},"µ":{"ha":694,"x_min":0,"x_max":0,"o":""},"¶":{"ha":694,"x_min":0,"x_max":0,"o":""},"·":{"ha":694,"x_min":0,"x_max":0,"o":""},"¸":{"ha":694,"x_min":0,"x_max":0,"o":""},"¹":{"ha":694,"x_min":0,"x_max":0,"o":""},"º":{"ha":694,"x_min":0,"x_max":0,"o":""},"»":{"ha":694,"x_min":0,"x_max":0,"o":""},"¼":{"ha":694,"x_min":0,"x_max":0,"o":""},"½":{"ha":694,"x_min":0,"x_max":0,"o":""},"¾":{"ha":694,"x_min":0,"x_max":0,"o":""},"¿":{"ha":694,"x_min":0,"x_max":0,"o":""},"À":{"ha":694,"x_min":0,"x_max":0,"o":""},"Á":{"ha":694,"x_min":0,"x_max":0,"o":""},"Â":{"ha":694,"x_min":0,"x_max":0,"o":""},"Ã":{"ha":694,"x_min":0,"x_max":0,"o":""},"Ä":{"ha":694,"x_min":0,"x_max":0,"o":""},"Å":{"ha":694,"x_min":0,"x_max":0,"o":""},"Æ":{"ha":694,"x_min":0,"x_max":0,"o":""},"Ç":{"ha":694,"x_min":0,"x_max":0,"o":""},"È":{"ha":694,"x_min":0,"x_max":0,"o":""},"É":{"ha":694,"x_min":0,"x_max":0,"o":""},"Ê":{"ha":694,"x_min":0,"x_max":0,"o":""},"Ë":{"ha":694,"x_min":0,"x_max":0,"o":""},"Ì":{"ha":694,"x_min":0,"x_max":0,"o":""},"Í":{"ha":694,"x_min":0,"x_max":0,"o":""},"Î":{"ha":694,"x_min":0,"x_max":0,"o":""},"Ï":{"ha":694,"x_min":0,"x_max":0,"o":""},"Ð":{"ha":694,"x_min":0,"x_max":0,"o":""},"Ñ":{"ha":694,"x_min":0,"x_max":0,"o":""},"Ò":{"ha":694,"x_min":0,"x_max":0,"o":""},"Ó":{"ha":694,"x_min":0,"x_max":0,"o":""},"Ô":{"ha":694,"x_min":0,"x_max":0,"o":""},"Õ":{"ha":694,"x_min":0,"x_max":0,"o":""},"Ö":{"ha":694,"x_min":0,"x_max":0,"o":""},"×":{"ha":694,"x_min":0,"x_max":0,"o":""},"Ø":{"ha":694,"x_min":0,"x_max":0,"o":""},"Ù":{"ha":694,"x_min":0,"x_max":0,"o":""},"Ú":{"ha":694,"x_min":0,"x_max":0,"o":""},"Û":{"ha":694,"x_min":0,"x_max":0,"o":""},"Ü":{"ha":694,"x_min":0,"x_max":0,"o":""},"Ý":{"ha":694,"x_min":0,"x_max":0,"o":""},"Þ":{"ha":694,"x_min":0,"x_max":0,"o":""},"ß":{"ha":694,"x_min":0,"x_max":0,"o":""},"à":{"ha":694,"x_min":0,"x_max":0,"o":""},"á":{"ha":694,"x_min":0,"x_max":0,"o":""},"â":{"ha":694,"x_min":0,"x_max":0,"o":""},"ã":{"ha":694,"x_min":0,"x_max":0,"o":""},"ä":{"ha":694,"x_min":0,"x_max":0,"o":""},"å":{"ha":694,"x_min":0,"x_max":0,"o":""},"æ":{"ha":694,"x_min":0,"x_max":0,"o":""},"ç":{"ha":694,"x_min":0,"x_max":0,"o":""},"è":{"ha":694,"x_min":0,"x_max":0,"o":""},"é":{"ha":694,"x_min":0,"x_max":0,"o":""},"ê":{"ha":694,"x_min":0,"x_max":0,"o":""},"ë":{"ha":694,"x_min":0,"x_max":0,"o":""},"ì":{"ha":694,"x_min":0,"x_max":0,"o":""},"í":{"ha":694,"x_min":0,"x_max":0,"o":""},"î":{"ha":694,"x_min":0,"x_max":0,"o":""},"ï":{"ha":694,"x_min":0,"x_max":0,"o":""},"ð":{"ha":694,"x_min":0,"x_max":0,"o":""},"ñ":{"ha":694,"x_min":0,"x_max":0,"o":""},"ò":{"ha":694,"x_min":0,"x_max":0,"o":""},"ó":{"ha":694,"x_min":0,"x_max":0,"o":""},"ô":{"ha":694,"x_min":0,"x_max":0,"o":""},"õ":{"ha":694,"x_min":0,"x_max":0,"o":""},"ö":{"ha":694,"x_min":0,"x_max":0,"o":""},"÷":{"ha":694,"x_min":0,"x_max":0,"o":""},"ø":{"ha":694,"x_min":0,"x_max":0,"o":""},"ù":{"ha":694,"x_min":0,"x_max":0,"o":""},"ú":{"ha":694,"x_min":0,"x_max":0,"o":""},"û":{"ha":694,"x_min":0,"x_max":0,"o":""},"ü":{"ha":694,"x_min":0,"x_max":0,"o":""},"ý":{"ha":694,"x_min":0,"x_max":0,"o":""},"þ":{"ha":694,"x_min":0,"x_max":0,"o":""},"ÿ":{"ha":694,"x_min":0,"x_max":0,"o":""},"Œ":{"ha":694,"x_min":0,"x_max":0,"o":""},"œ":{"ha":694,"x_min":0,"x_max":0,"o":""},"Š":{"ha":694,"x_min":0,"x_max":0,"o":""},"š":{"ha":694,"x_min":0,"x_max":0,"o":""},"Ÿ":{"ha":694,"x_min":0,"x_max":0,"o":""},"Ž":{"ha":694,"x_min":0,"x_max":0,"o":""},"ž":{"ha":694,"x_min":0,"x_max":0,"o":""},"ƒ":{"ha":694,"x_min":0,"x_max":0,"o":""},"ˆ":{"ha":694,"x_min":0,"x_max":0,"o":""},"˜":{"ha":694,"x_min":0,"x_max":0,"o":""},"–":{"ha":694,"x_min":0,"x_max":0,"o":""},"—":{"ha":694,"x_min":0,"x_max":0,"o":""},"‘":{"ha":694,"x_min":0,"x_max":0,"o":""},"’":{"ha":694,"x_min":0,"x_max":0,"o":""},"‚":{"ha":694,"x_min":0,"x_max":0,"o":""},"“":{"ha":694,"x_min":0,"x_max":0,"o":""},"”":{"ha":694,"x_min":0,"x_max":0,"o":""},"„":{"ha":694,"x_min":0,"x_max":0,"o":""},"†":{"ha":694,"x_min":0,"x_max":0,"o":""},"‡":{"ha":694,"x_min":0,"x_max":0,"o":""},"•":{"ha":694,"x_min":0,"x_max":0,"o":""},"…":{"ha":694,"x_min":0,"x_max":0,"o":""},"‰":{"ha":694,"x_min":0,"x_max":0,"o":""},"‹":{"ha":694,"x_min":0,"x_max":0,"o":""},"›":{"ha":694,"x_min":0,"x_max":0,"o":""},"€":{"ha":694,"x_min":0,"x_max":0,"o":""},"™":{"ha":694,"x_min":0,"x_max":0,"o":""},"∙":{"ha":694,"x_min":0,"x_max":0,"o":""}}}
